<?xml version="1.0" encoding="utf-8"?>
<!-- Generator: Adobe Illustrator 24.3.0, SVG Export Plug-In . SVG Version: 6.00 Build 0)  -->
<svg version="1.1" id="Layer_1" xmlns="http://www.w3.org/2000/svg" xmlns:xlink="http://www.w3.org/1999/xlink" x="0px" y="0px"
	 viewBox="0 0 190 50" style="enable-background:new 0 0 190 50;" xml:space="preserve">
<style type="text/css">
	.st0{fill:#FFFFFF;}
	.st1{fill-rule:evenodd;clip-rule:evenodd;fill:#FFFFFF;}
</style>
<g>
	<path class="st0" d="M155.75,46.45l-0.57-1.87c-0.03-0.08-0.05-0.16-0.07-0.24c-0.02-0.08-0.04-0.15-0.06-0.22
		c-0.02-0.07-0.04-0.14-0.05-0.2c-0.01-0.06-0.03-0.12-0.04-0.16h-0.02c-0.01,0.04-0.02,0.1-0.03,0.16
		c-0.01,0.06-0.03,0.13-0.05,0.2c-0.02,0.07-0.04,0.15-0.06,0.23c-0.02,0.08-0.05,0.16-0.07,0.24l-0.6,1.86h-0.55l-0.89-3.21h0.5
		l0.46,1.77c0.03,0.12,0.06,0.23,0.09,0.35c0.03,0.11,0.05,0.22,0.07,0.32c0.02,0.1,0.03,0.19,0.04,0.26h0.02
		c0.01-0.05,0.02-0.11,0.04-0.18c0.02-0.07,0.03-0.14,0.05-0.22c0.02-0.08,0.04-0.15,0.06-0.23c0.02-0.08,0.04-0.15,0.06-0.22
		l0.59-1.86h0.53l0.57,1.86c0.03,0.09,0.06,0.19,0.09,0.29c0.03,0.1,0.06,0.2,0.08,0.29c0.02,0.1,0.04,0.18,0.05,0.25h0.02
		c0.01-0.07,0.02-0.15,0.04-0.25c0.02-0.1,0.05-0.21,0.07-0.32c0.03-0.12,0.06-0.24,0.09-0.36l0.47-1.77h0.5l-0.89,3.21H155.75z
		 M149.85,44.83c0,0.26,0.03,0.48,0.1,0.67c0.07,0.19,0.17,0.34,0.32,0.44c0.14,0.1,0.33,0.16,0.55,0.16c0.22,0,0.41-0.05,0.55-0.16
		c0.14-0.1,0.25-0.25,0.32-0.44c0.07-0.19,0.1-0.41,0.1-0.67c0-0.26-0.03-0.48-0.1-0.66c-0.07-0.19-0.17-0.33-0.32-0.43
		c-0.14-0.1-0.33-0.15-0.55-0.15c-0.33,0-0.58,0.11-0.73,0.33C149.93,44.14,149.85,44.44,149.85,44.83z M152.3,44.83
		c0,0.26-0.03,0.5-0.1,0.71c-0.07,0.21-0.17,0.38-0.3,0.52c-0.13,0.14-0.29,0.25-0.47,0.33c-0.18,0.07-0.39,0.11-0.62,0.11
		c-0.22,0-0.41-0.04-0.59-0.11c-0.18-0.07-0.33-0.18-0.46-0.33c-0.13-0.14-0.23-0.32-0.3-0.52c-0.07-0.21-0.11-0.44-0.11-0.71
		c0-0.35,0.06-0.65,0.18-0.9c0.12-0.25,0.29-0.44,0.51-0.57c0.22-0.13,0.49-0.2,0.79-0.2c0.29,0,0.55,0.06,0.77,0.2
		c0.22,0.13,0.39,0.32,0.51,0.57C152.24,44.19,152.3,44.48,152.3,44.83z M148.53,43.17c0.06,0,0.13,0,0.2,0.01
		c0.07,0.01,0.13,0.02,0.19,0.03l-0.06,0.45c-0.05-0.01-0.11-0.02-0.18-0.03c-0.06-0.01-0.13-0.01-0.18-0.01
		c-0.13,0-0.25,0.03-0.36,0.08c-0.12,0.05-0.22,0.13-0.3,0.22c-0.09,0.1-0.15,0.21-0.2,0.35c-0.05,0.14-0.07,0.29-0.07,0.45v1.72
		h-0.49v-3.21h0.4l0.05,0.59h0.02c0.07-0.12,0.15-0.23,0.24-0.33c0.09-0.1,0.2-0.18,0.33-0.24
		C148.24,43.2,148.38,43.17,148.53,43.17z M146.08,43.17c0.06,0,0.13,0,0.2,0.01c0.07,0.01,0.13,0.02,0.19,0.03l-0.06,0.45
		c-0.05-0.01-0.11-0.02-0.18-0.03c-0.06-0.01-0.12-0.01-0.18-0.01c-0.13,0-0.25,0.03-0.36,0.08c-0.12,0.05-0.21,0.13-0.3,0.22
		c-0.09,0.1-0.15,0.21-0.2,0.35c-0.05,0.14-0.07,0.29-0.07,0.45v1.72h-0.49v-3.21h0.4l0.05,0.59h0.02c0.07-0.12,0.15-0.23,0.24-0.33
		c0.09-0.1,0.2-0.18,0.33-0.24C145.79,43.2,145.93,43.17,146.08,43.17z M141.33,44.83c0,0.26,0.03,0.48,0.1,0.67
		c0.07,0.19,0.17,0.34,0.32,0.44c0.14,0.1,0.33,0.16,0.55,0.16c0.22,0,0.41-0.05,0.55-0.16c0.14-0.1,0.25-0.25,0.32-0.44
		c0.07-0.19,0.1-0.41,0.1-0.67c0-0.26-0.03-0.48-0.1-0.66c-0.07-0.19-0.17-0.33-0.32-0.43c-0.14-0.1-0.33-0.15-0.55-0.15
		c-0.33,0-0.58,0.11-0.73,0.33C141.41,44.14,141.33,44.44,141.33,44.83z M143.78,44.83c0,0.26-0.03,0.5-0.1,0.71
		c-0.07,0.21-0.17,0.38-0.3,0.52c-0.13,0.14-0.29,0.25-0.47,0.33c-0.18,0.07-0.39,0.11-0.62,0.11c-0.22,0-0.41-0.04-0.59-0.11
		c-0.18-0.07-0.33-0.18-0.46-0.33c-0.13-0.14-0.23-0.32-0.3-0.52c-0.07-0.21-0.11-0.44-0.11-0.71c0-0.35,0.06-0.65,0.18-0.9
		c0.12-0.25,0.29-0.44,0.51-0.57c0.22-0.13,0.49-0.2,0.79-0.2c0.29,0,0.55,0.06,0.77,0.2c0.22,0.13,0.39,0.32,0.51,0.57
		C143.71,44.19,143.78,44.48,143.78,44.83z M138.93,43.17c0.35,0,0.62,0.09,0.8,0.28c0.18,0.18,0.27,0.48,0.27,0.89v2.11h-0.48
		v-2.08c0-0.26-0.06-0.46-0.17-0.59c-0.11-0.13-0.28-0.2-0.5-0.2c-0.31,0-0.54,0.09-0.68,0.27c-0.14,0.18-0.21,0.44-0.21,0.79v1.8
		h-0.48v-2.08c0-0.17-0.02-0.32-0.07-0.43c-0.05-0.12-0.12-0.2-0.22-0.26c-0.1-0.06-0.22-0.09-0.37-0.09
		c-0.21,0-0.38,0.04-0.51,0.13c-0.13,0.09-0.22,0.22-0.28,0.39c-0.06,0.17-0.09,0.39-0.09,0.64v1.7h-0.49v-3.21h0.39l0.07,0.45h0.03
		c0.06-0.11,0.15-0.21,0.24-0.28c0.1-0.08,0.21-0.13,0.33-0.17c0.12-0.04,0.25-0.06,0.39-0.06c0.24,0,0.45,0.04,0.61,0.14
		c0.17,0.09,0.28,0.23,0.36,0.42h0.03c0.11-0.19,0.25-0.32,0.43-0.42C138.51,43.22,138.72,43.17,138.93,43.17z M132.16,44.83
		c0,0.26,0.03,0.48,0.1,0.67c0.07,0.19,0.17,0.34,0.32,0.44c0.14,0.1,0.33,0.16,0.55,0.16c0.22,0,0.41-0.05,0.55-0.16
		c0.14-0.1,0.25-0.25,0.32-0.44c0.07-0.19,0.1-0.41,0.1-0.67c0-0.26-0.03-0.48-0.1-0.66c-0.07-0.19-0.17-0.33-0.32-0.43
		c-0.14-0.1-0.33-0.15-0.55-0.15c-0.33,0-0.58,0.11-0.73,0.33C132.24,44.14,132.16,44.44,132.16,44.83z M134.6,44.83
		c0,0.26-0.03,0.5-0.1,0.71c-0.07,0.21-0.17,0.38-0.3,0.52c-0.13,0.14-0.29,0.25-0.47,0.33c-0.18,0.07-0.39,0.11-0.62,0.11
		c-0.22,0-0.41-0.04-0.59-0.11c-0.18-0.07-0.33-0.18-0.46-0.33c-0.13-0.14-0.23-0.32-0.3-0.52c-0.07-0.21-0.11-0.44-0.11-0.71
		c0-0.35,0.06-0.65,0.18-0.9c0.12-0.25,0.29-0.44,0.51-0.57c0.22-0.13,0.49-0.2,0.79-0.2c0.29,0,0.55,0.06,0.77,0.2
		c0.22,0.13,0.39,0.32,0.51,0.57C134.54,44.19,134.6,44.48,134.6,44.83z M129.91,46.45h-0.5V42.6h-1.35v-0.44h3.19v0.44h-1.34V46.45
		z M124.8,43.17c0.38,0,0.67,0.09,0.86,0.28c0.2,0.19,0.29,0.49,0.29,0.9v2.09h-0.48v-2.06c0-0.27-0.06-0.47-0.18-0.6
		c-0.12-0.13-0.31-0.2-0.56-0.2c-0.36,0-0.61,0.1-0.75,0.3c-0.15,0.2-0.22,0.49-0.22,0.88v1.68h-0.49v-3.21h0.39l0.07,0.46h0.03
		c0.07-0.11,0.16-0.21,0.26-0.29c0.1-0.08,0.22-0.14,0.35-0.18C124.52,43.19,124.66,43.17,124.8,43.17z M122.29,43.17
		c0.06,0,0.13,0,0.2,0.01c0.07,0.01,0.13,0.02,0.19,0.03l-0.06,0.45c-0.05-0.01-0.11-0.02-0.18-0.03c-0.06-0.01-0.13-0.01-0.18-0.01
		c-0.13,0-0.25,0.03-0.36,0.08c-0.12,0.05-0.22,0.13-0.3,0.22c-0.09,0.1-0.15,0.21-0.2,0.35c-0.05,0.14-0.07,0.29-0.07,0.45v1.72
		h-0.49v-3.21h0.4l0.05,0.59h0.02c0.07-0.12,0.15-0.23,0.24-0.33c0.09-0.1,0.2-0.18,0.33-0.24C122,43.2,122.13,43.17,122.29,43.17z
		 M119.34,44.86l-0.49,0.02c-0.4,0.02-0.68,0.08-0.85,0.2c-0.16,0.12-0.25,0.28-0.25,0.49c0,0.18,0.06,0.32,0.17,0.41
		c0.11,0.09,0.26,0.13,0.44,0.13c0.29,0,0.52-0.08,0.7-0.24c0.18-0.16,0.27-0.4,0.27-0.71V44.86z M118.69,43.17
		c0.38,0,0.67,0.09,0.85,0.26c0.19,0.17,0.28,0.45,0.28,0.83v2.19h-0.36l-0.09-0.47h-0.02c-0.09,0.12-0.18,0.22-0.28,0.29
		c-0.1,0.08-0.21,0.14-0.34,0.18c-0.13,0.04-0.28,0.06-0.47,0.06c-0.2,0-0.37-0.03-0.52-0.1c-0.15-0.07-0.27-0.17-0.36-0.31
		c-0.09-0.14-0.13-0.32-0.13-0.53c0-0.32,0.13-0.57,0.38-0.74c0.25-0.17,0.64-0.27,1.16-0.28l0.55-0.02v-0.2
		c0-0.28-0.06-0.48-0.18-0.59c-0.12-0.11-0.29-0.17-0.5-0.17c-0.17,0-0.33,0.02-0.48,0.07c-0.15,0.05-0.3,0.11-0.43,0.17l-0.15-0.37
		c0.15-0.07,0.31-0.14,0.5-0.19C118.29,43.2,118.48,43.17,118.69,43.17z M116.61,46.45h-2.39v-4.29h2.39v0.44h-1.89v1.39h1.78v0.43
		h-1.78v1.58h1.89V46.45z"/>
	<path class="st0" d="M99.03,43.23h0.52l0.71,1.86c0.04,0.11,0.08,0.21,0.12,0.32c0.03,0.1,0.07,0.2,0.09,0.29
		c0.03,0.09,0.05,0.18,0.07,0.27h0.02c0.03-0.1,0.07-0.23,0.12-0.39c0.05-0.16,0.11-0.32,0.17-0.49l0.67-1.86h0.53l-1.4,3.68
		c-0.07,0.2-0.16,0.37-0.26,0.52c-0.1,0.15-0.22,0.26-0.36,0.34c-0.14,0.08-0.31,0.12-0.51,0.12c-0.09,0-0.17-0.01-0.24-0.02
		c-0.07-0.01-0.13-0.02-0.18-0.04v-0.39c0.04,0.01,0.1,0.02,0.16,0.03c0.06,0.01,0.13,0.01,0.19,0.01c0.12,0,0.23-0.02,0.32-0.07
		c0.09-0.05,0.17-0.11,0.23-0.2c0.07-0.09,0.12-0.19,0.17-0.31l0.18-0.45L99.03,43.23z M98.06,44.86l-0.49,0.02
		c-0.4,0.02-0.68,0.08-0.85,0.2c-0.16,0.12-0.25,0.28-0.25,0.49c0,0.18,0.06,0.32,0.17,0.41c0.11,0.09,0.26,0.13,0.44,0.13
		c0.29,0,0.52-0.08,0.7-0.24c0.18-0.16,0.27-0.4,0.27-0.71V44.86z M97.41,43.17c0.38,0,0.67,0.09,0.85,0.26
		c0.19,0.17,0.28,0.45,0.28,0.83v2.19h-0.36l-0.09-0.47h-0.02c-0.09,0.12-0.18,0.22-0.28,0.29c-0.1,0.08-0.21,0.14-0.34,0.18
		c-0.13,0.04-0.28,0.06-0.47,0.06c-0.2,0-0.37-0.03-0.52-0.1c-0.15-0.07-0.27-0.17-0.36-0.31c-0.09-0.14-0.13-0.32-0.13-0.53
		c0-0.32,0.13-0.57,0.38-0.74c0.25-0.17,0.64-0.27,1.16-0.28l0.55-0.02v-0.2c0-0.28-0.06-0.48-0.18-0.59
		c-0.12-0.11-0.29-0.17-0.5-0.17c-0.17,0-0.33,0.02-0.48,0.07c-0.15,0.05-0.3,0.11-0.43,0.17l-0.15-0.37
		c0.15-0.07,0.31-0.14,0.5-0.19C97,43.2,97.2,43.17,97.41,43.17z M93.75,46.1c0.34,0,0.59-0.1,0.73-0.29
		c0.14-0.2,0.21-0.49,0.21-0.87v-0.09c0-0.41-0.07-0.72-0.2-0.94c-0.14-0.22-0.38-0.33-0.74-0.33c-0.3,0-0.52,0.12-0.67,0.35
		c-0.15,0.23-0.22,0.54-0.22,0.94c0,0.4,0.07,0.7,0.22,0.92C93.22,45.99,93.45,46.1,93.75,46.1z M93.67,46.51
		c-0.41,0-0.73-0.14-0.97-0.42c-0.24-0.28-0.36-0.69-0.36-1.24c0-0.55,0.12-0.97,0.36-1.25c0.24-0.28,0.57-0.42,0.97-0.42
		c0.17,0,0.32,0.02,0.45,0.07c0.13,0.04,0.24,0.1,0.33,0.18c0.09,0.07,0.17,0.16,0.23,0.26h0.03c-0.01-0.06-0.01-0.14-0.02-0.25
		c-0.01-0.11-0.01-0.19-0.01-0.26v-1.29h0.49v4.56h-0.39l-0.07-0.46h-0.02c-0.06,0.1-0.14,0.18-0.23,0.26
		c-0.09,0.08-0.2,0.14-0.33,0.19C94,46.48,93.85,46.51,93.67,46.51z M89.24,44.83c0,0.26,0.03,0.48,0.1,0.67
		c0.07,0.19,0.17,0.34,0.32,0.44c0.14,0.1,0.33,0.16,0.55,0.16c0.22,0,0.41-0.05,0.55-0.16c0.14-0.1,0.25-0.25,0.32-0.44
		c0.07-0.19,0.1-0.41,0.1-0.67c0-0.26-0.03-0.48-0.1-0.66c-0.07-0.19-0.17-0.33-0.32-0.43c-0.14-0.1-0.33-0.15-0.55-0.15
		c-0.33,0-0.58,0.11-0.73,0.33C89.32,44.14,89.24,44.44,89.24,44.83z M91.69,44.83c0,0.26-0.03,0.5-0.1,0.71
		c-0.07,0.21-0.17,0.38-0.3,0.52c-0.13,0.14-0.29,0.25-0.47,0.33c-0.18,0.07-0.39,0.11-0.62,0.11c-0.22,0-0.41-0.04-0.59-0.11
		c-0.18-0.07-0.33-0.18-0.46-0.33c-0.13-0.14-0.23-0.32-0.3-0.52c-0.07-0.21-0.11-0.44-0.11-0.71c0-0.35,0.06-0.65,0.18-0.9
		c0.12-0.25,0.29-0.44,0.51-0.57c0.22-0.13,0.49-0.2,0.79-0.2c0.29,0,0.55,0.06,0.77,0.2c0.22,0.13,0.39,0.32,0.51,0.57
		C91.63,44.19,91.69,44.48,91.69,44.83z M87,46.45h-0.5V42.6h-1.35v-0.44h3.19v0.44H87V46.45z M81.89,43.17
		c0.38,0,0.67,0.09,0.86,0.28c0.2,0.19,0.29,0.49,0.29,0.9v2.09h-0.48v-2.06c0-0.27-0.06-0.47-0.18-0.6
		c-0.12-0.13-0.31-0.2-0.56-0.2c-0.36,0-0.61,0.1-0.75,0.3c-0.15,0.2-0.22,0.49-0.22,0.88v1.68h-0.49v-3.21h0.39l0.07,0.46h0.03
		c0.07-0.11,0.16-0.21,0.26-0.29c0.1-0.08,0.22-0.14,0.35-0.18C81.61,43.19,81.74,43.17,81.89,43.17z M79.37,43.17
		c0.06,0,0.13,0,0.2,0.01c0.07,0.01,0.13,0.02,0.19,0.03l-0.06,0.45c-0.05-0.01-0.11-0.02-0.18-0.03c-0.06-0.01-0.13-0.01-0.18-0.01
		c-0.13,0-0.25,0.03-0.36,0.08c-0.12,0.05-0.22,0.13-0.3,0.22c-0.09,0.1-0.15,0.21-0.2,0.35c-0.05,0.14-0.07,0.29-0.07,0.45v1.72
		h-0.49v-3.21h0.4l0.05,0.59h0.02c0.07-0.12,0.15-0.23,0.24-0.33c0.09-0.1,0.2-0.18,0.33-0.24C79.08,43.2,79.22,43.17,79.37,43.17z
		 M76.43,44.86l-0.49,0.02c-0.4,0.02-0.68,0.08-0.85,0.2c-0.16,0.12-0.25,0.28-0.25,0.49c0,0.18,0.06,0.32,0.17,0.41
		c0.11,0.09,0.26,0.13,0.44,0.13c0.29,0,0.52-0.08,0.7-0.24c0.18-0.16,0.27-0.4,0.27-0.71V44.86z M75.78,43.17
		c0.38,0,0.67,0.09,0.85,0.26c0.19,0.17,0.28,0.45,0.28,0.83v2.19h-0.36l-0.09-0.47h-0.02c-0.09,0.12-0.18,0.22-0.28,0.29
		c-0.1,0.08-0.21,0.14-0.34,0.18c-0.13,0.04-0.28,0.06-0.47,0.06c-0.2,0-0.37-0.03-0.52-0.1c-0.15-0.07-0.27-0.17-0.36-0.31
		c-0.09-0.14-0.13-0.32-0.13-0.53c0-0.32,0.13-0.57,0.38-0.74c0.25-0.17,0.64-0.27,1.16-0.28l0.55-0.02v-0.2
		c0-0.28-0.06-0.48-0.18-0.59c-0.12-0.11-0.29-0.17-0.5-0.17c-0.17,0-0.33,0.02-0.48,0.07c-0.15,0.05-0.3,0.11-0.43,0.17l-0.15-0.37
		c0.15-0.07,0.31-0.14,0.5-0.19C75.37,43.2,75.57,43.17,75.78,43.17z M72.43,43.57c-0.26,0-0.47,0.09-0.62,0.26
		c-0.15,0.17-0.25,0.41-0.28,0.71h1.7c0-0.19-0.03-0.36-0.09-0.51c-0.06-0.15-0.15-0.26-0.26-0.34
		C72.77,43.61,72.62,43.57,72.43,43.57z M72.44,43.17c0.27,0,0.51,0.06,0.7,0.18c0.2,0.12,0.35,0.29,0.45,0.51
		c0.1,0.22,0.16,0.47,0.16,0.77v0.3h-2.22c0.01,0.38,0.1,0.66,0.28,0.86c0.18,0.2,0.44,0.3,0.77,0.3c0.2,0,0.38-0.02,0.54-0.06
		c0.16-0.04,0.32-0.09,0.49-0.16v0.43c-0.16,0.07-0.32,0.13-0.48,0.16c-0.16,0.03-0.35,0.05-0.56,0.05c-0.31,0-0.58-0.06-0.81-0.19
		c-0.23-0.13-0.41-0.31-0.54-0.56c-0.13-0.24-0.19-0.54-0.19-0.9c0-0.35,0.06-0.65,0.17-0.9c0.12-0.25,0.28-0.45,0.49-0.59
		C71.9,43.24,72.15,43.17,72.44,43.17z M68.14,46.45v-4.29h0.5V46h1.9v0.45H68.14z"/>
	<path class="st1" d="M57.72,46.71c0.86-0.13,1.49-0.15,2.28,0.14c1.02,0.37,1.13,0.78,1.58,1.04c0-0.86,0.14-4.8-0.12-5.28
		c-0.44-0.83-2.26-1.87-3.73-1.24L57.72,46.71z"/>
	<path class="st1" d="M61.94,47.7c1.14-0.97,1.83-1.21,3.59-0.99l-0.05-5.34c-1.5-0.67-3.32,0.46-3.72,1.3
		c-0.21,0.44-0.09,4.41-0.09,5.22L61.94,47.7z"/>
	<path class="st1" d="M56.97,41.7c-0.17,0.4-0.08,4.78-0.07,5.93c1.95-0.21,2.61,0,4.37,0.31c-0.01-0.02-0.04-0.06-0.04-0.05
		l-0.13-0.13c-0.05-0.04-0.13-0.09-0.19-0.13c-0.11-0.07-0.25-0.16-0.39-0.23c-0.26-0.14-0.58-0.25-0.89-0.34
		c-0.78-0.22-1.38-0.14-2.14-0.03l-0.02-5.36L56.97,41.7z"/>
	<path class="st1" d="M61.97,47.94c1.78-0.34,2.42-0.49,4.37-0.32c0.02-1,0-2.01,0-3.01c0-1.47,0.06-2.22-0.06-2.91l-0.52-0.03
		l-0.02,5.36c-0.8-0.1-1.29-0.2-2.13,0.03c-0.54,0.15-0.84,0.29-1.28,0.57L61.97,47.94z"/>
	<path class="st1" d="M107.73,39.59c-0.68,0.04-1.29,0.18-1.89,0.49c-0.52,0.26-0.75,0.45-1.14,0.79c-0.24,0.21-0.58,0.64-0.74,0.89
		c-1.12,1.72-0.98,4.01,0.32,5.58c0.05,0.06,0.09,0.11,0.14,0.16l0.22,0.23c0.03,0.03,0.05,0.05,0.08,0.07
		c0.36,0.36,0.98,0.74,1.45,0.93c0.59,0.23,1.31,0.39,2.02,0.34c0.99-0.06,1.87-0.37,2.62-0.94c0.24-0.18,0.29-0.24,0.48-0.41
		c0.07-0.06,0.16-0.17,0.22-0.23c0.02-0.02,0.05-0.05,0.07-0.08c0.15-0.19,0.24-0.29,0.38-0.51c0.53-0.82,0.79-1.77,0.75-2.8
		c-0.03-0.72-0.22-1.33-0.49-1.89c-0.18-0.37-0.45-0.76-0.72-1.06l-0.3-0.3c-0.27-0.23-0.34-0.31-0.66-0.52
		C109.75,39.83,108.71,39.53,107.73,39.59 M107.82,40.29c0.84-0.04,1.7,0.24,2.36,0.67c0.14,0.09,0.3,0.22,0.43,0.33
		c0.05,0.04,0.08,0.08,0.13,0.12c0.16,0.14,0.34,0.36,0.47,0.54c0.47,0.64,0.75,1.4,0.78,2.25c0.04,1.1-0.4,2.18-1.12,2.92
		c-0.32,0.33-0.67,0.6-1.17,0.85c-0.46,0.23-1.02,0.37-1.62,0.4c-1.35,0.06-2.62-0.6-3.4-1.66c-0.46-0.63-0.75-1.41-0.77-2.25
		c-0.02-0.62,0.1-1.21,0.32-1.71c0.32-0.73,0.75-1.24,1.34-1.69C106.22,40.58,106.96,40.34,107.82,40.29z"/>
	<path class="st1" d="M108.29,42.6c0.09,0.01,0.21,0.06,0.29,0.1c0.27,0.14,0.38,0.38,0.41,0.71c0.03,0.01,0.66,0.01,0.72,0
		c0.01-0.64-0.33-1.12-0.84-1.34c-0.09-0.04-0.17-0.07-0.27-0.1c-0.09-0.03-0.28-0.06-0.3-0.06l0-0.54l-0.68,0l0,0.54
		c-0.03,0.01-0.11,0.02-0.14,0.03c-0.14,0.03-0.26,0.06-0.39,0.11c-0.49,0.21-0.83,0.61-0.83,1.18c-0.01,0.76,0.51,1.05,1.11,1.24
		c0.06,0.02,0.22,0.05,0.26,0.07l0,1.5c-0.1-0.01-0.25-0.08-0.32-0.12c-0.19-0.11-0.34-0.26-0.42-0.47
		c-0.07-0.18-0.05-0.29-0.07-0.37l-0.71,0c0,0.25,0.04,0.47,0.12,0.68c0.08,0.21,0.19,0.35,0.31,0.49c0.18,0.19,0.5,0.35,0.77,0.43
		l0.25,0.05c0.04,0.01,0.07,0,0.08,0.02l0,0.54l0.68,0v-0.53c0.42-0.02,0.82-0.22,1.06-0.42c0.23-0.2,0.47-0.54,0.47-1.01
		c0-0.22-0.05-0.43-0.14-0.6c-0.1-0.18-0.2-0.28-0.34-0.4c-0.25-0.21-0.66-0.32-0.98-0.4c-0.08-0.02-0.05-0.01-0.07-0.03
		L108.29,42.6z M107.61,43.76c-0.13-0.02-0.35-0.11-0.45-0.17c-0.13-0.08-0.21-0.19-0.2-0.41c0.01-0.33,0.32-0.54,0.65-0.57V43.76z
		 M108.29,44.69c0.15,0.03,0.43,0.14,0.54,0.21c0.15,0.1,0.26,0.22,0.26,0.48c0,0.42-0.39,0.65-0.8,0.69L108.29,44.69z"/>
	<polygon class="st0" points="36.71,41.27 39.86,40.66 41,41.97 39.15,43.95 	"/>
	<polygon class="st0" points="32.41,33.48 36.18,39.98 38.57,39.36 41.3,39.98 43.76,37.62 45.55,33.14 42.16,31.85 38.48,31.85 
		34.47,31.85 	"/>
	<polygon class="st0" points="52.4,7.46 52.4,3.87 25.52,3.87 25.52,9.05 55.35,9.05 55.35,20.46 22.57,20.46 22.57,14.06 
		25.52,14.06 25.52,17.51 52.4,17.51 52.4,11.99 22.57,11.99 22.57,0.92 55.35,0.92 55.35,7.46 	"/>
	<rect x="39.84" y="13.87" class="st0" width="10.61" height="1.96"/>
	<rect x="33.75" y="13.87" class="st0" width="2.01" height="1.96"/>
	<rect x="29.16" y="13.87" class="st0" width="2.01" height="1.96"/>
	<rect x="29.16" y="5.48" class="st0" width="10.61" height="1.96"/>
	<rect x="43.86" y="5.48" class="st0" width="2.01" height="1.96"/>
	<rect x="48.45" y="5.48" class="st0" width="2.01" height="1.96"/>
	<path class="st0" d="M44.71,33.45c-0.07,0-0.14,0-0.21-0.01c-1.12-0.05-2.03-0.43-2.69-0.82c-0.06-0.04-0.12-0.07-0.17-0.11
		l-0.09,0.06c-0.67,0.47-1.64,0.91-2.87,0.87c-1.13-0.04-2-0.47-2.6-0.92l-0.02-0.02c-0.08,0.05-0.17,0.1-0.26,0.16
		c-0.73,0.41-1.72,0.78-2.95,0.78l5.89,9.78L44.71,33.45z M46.27,30.3c0.42-0.24,0.67-0.48,0.73-0.55l8.64-8.94L38.72,48.51
		L22.43,21.48l8.13,8.26c0.07,0.08,0.31,0.3,0.71,0.53c0.39,0.22,0.92,0.43,1.56,0.44c0.67,0.01,1.22-0.2,1.62-0.42
		c0.4-0.22,0.65-0.47,0.72-0.54l1.13-1.14l0.95,1.29c0.03,0.04,0.17,0.23,0.45,0.43c0.26,0.19,0.63,0.37,1.08,0.39
		c0.5,0.02,0.91-0.17,1.2-0.37c0.3-0.21,0.46-0.42,0.48-0.45l0.96-1.3l1.12,1.17c0.08,0.08,0.3,0.31,0.66,0.52
		c0.35,0.21,0.83,0.41,1.42,0.44C45.3,30.73,45.86,30.53,46.27,30.3z"/>
	<path class="st0" d="M40.3,41.75c-0.1-0.06-0.29-0.17-0.57-0.26c-0.27-0.09-0.61-0.16-0.98-0.15c-0.36,0.01-0.67,0.09-0.91,0.18
		c-0.24,0.09-0.42,0.2-0.53,0.27l-1.49-2.3c0.21-0.13,0.56-0.34,1.05-0.53c0.48-0.18,1.09-0.34,1.79-0.37
		c0.77-0.03,1.42,0.1,1.94,0.27c0.51,0.17,0.9,0.38,1.12,0.51L40.3,41.75z"/>
	<path class="st0" d="M103.82,33.81c-1.62,0-2.79-0.77-3.53-2.28l-2.99,1.48c0.49,1.3,1.3,2.3,2.46,2.99
		c1.15,0.69,2.5,1.02,4.07,1.02c1.2,0,2.33-0.2,3.37-0.64c1.05-0.43,1.89-1.07,2.53-1.91c0.64-0.85,0.95-1.87,0.95-3.07
		c0-2.01-0.95-3.43-2.86-4.24c1.64-0.9,2.46-2.28,2.46-4.15c0-1.1-0.28-2.02-0.85-2.76c-0.57-0.74-1.33-1.3-2.3-1.69
		c-0.97-0.38-2.02-0.59-3.17-0.61c-1.56,0-2.91,0.38-4.09,1.17c-1.18,0.79-1.97,1.91-2.38,3.38l3.15,1.15
		c0.25-0.74,0.66-1.33,1.22-1.76c0.56-0.43,1.22-0.67,1.97-0.67c0.74,0,1.35,0.2,1.84,0.62c0.49,0.41,0.74,0.94,0.74,1.64
		c0,0.87-0.31,1.51-0.95,1.91c-0.64,0.41-1.46,0.62-2.45,0.62h-1.08v2.66h1.13c2.48,0,3.7,0.84,3.7,2.53c0,0.84-0.28,1.49-0.84,1.94
		c-0.57,0.46-1.28,0.69-2.15,0.69L103.82,33.81z M87.86,33.78c-1.67,0-2.99-0.77-3.99-2.33l-2.68,1.99c0.59,1.1,1.46,1.97,2.63,2.61
		c1.18,0.64,2.56,0.97,4.17,0.97c1.51,0,2.76-0.25,3.78-0.79c1.03-0.54,1.79-1.22,2.28-2.07c0.49-0.84,0.75-1.74,0.75-2.68
		c0-1.1-0.23-2.02-0.72-2.76c-0.49-0.75-1.15-1.36-1.99-1.84c-0.85-0.49-1.92-0.95-3.22-1.38c-0.82-0.28-1.43-0.51-1.86-0.71
		c-0.43-0.21-0.75-0.43-0.95-0.72c-0.2-0.28-0.3-0.64-0.3-1.07c0-0.54,0.2-0.97,0.59-1.33c0.38-0.36,0.95-0.54,1.69-0.54
		c0.79,0,1.46,0.15,2.02,0.46c0.56,0.3,1.12,0.86,1.68,1.66l2.69-1.99c-1.36-2.28-3.48-3.43-6.37-3.43c-1.28,0-2.38,0.23-3.32,0.72
		c-0.95,0.49-1.67,1.09-2.15,1.86c-0.49,0.77-0.71,1.59-0.71,2.46c0,1.56,0.49,2.78,1.43,3.68c0.95,0.89,2.35,1.61,4.2,2.17
		c1.25,0.38,2.12,0.74,2.61,1.09c0.49,0.36,0.74,0.87,0.74,1.57c0,0.69-0.25,1.22-0.77,1.61c-0.51,0.38-1.25,0.57-2.22,0.57
		L87.86,33.78z M75.05,18.32V30.2L64.73,18.32h-2.46v18.41h3.58V24.86l10.36,11.86h2.45V18.32H75.05z"/>
	<path class="st0" d="M150.46,32.76c-0.46-0.72-0.69-1.61-0.69-2.68V18.52h-3.63V30.8c0,1.25,0.28,2.35,0.84,3.3
		c0.57,0.94,1.33,1.66,2.3,2.17c0.97,0.51,2.07,0.77,3.28,0.77c1.2,0,2.3-0.25,3.27-0.77c0.97-0.51,1.74-1.22,2.3-2.17
		c0.56-0.95,0.84-2.07,0.84-3.36v-7.9h-3.65v7.21c0,1.1-0.23,1.99-0.7,2.69c-0.46,0.69-1.17,1.04-2.12,1.04
		c-0.94,0-1.63-0.35-2.09-1.07L150.46,32.76z M137.53,31.82c-1.1,1.02-2.66,1.53-4.71,1.53h-2.12V21.69h2.17
		c1.97,0,3.51,0.54,4.63,1.58c1.12,1.05,1.69,2.49,1.69,4.3c0,1.79-0.54,3.2-1.64,4.22L137.53,31.82z M138.5,19.52
		c-1.54-0.8-3.43-1.2-5.7-1.2h-5.96v18.41H133c2.15,0,3.99-0.38,5.5-1.17c1.51-0.8,2.63-1.87,3.4-3.25
		c0.77-1.38,1.15-2.97,1.15-4.73c0-1.79-0.36-3.38-1.1-4.75c-0.74-1.38-1.87-2.48-3.4-3.28L138.5,19.52z M117.03,21.61h7.28v-3.3
		h-11.09v18.41h11.09v-3.3h-7.28v-4.55h6.08v-3.2h-6.08V21.61z"/>
	<path class="st0" d="M163.11,36.85c0.5,0.52,1.12,0.79,1.85,0.79c0.72,0,1.35-0.26,1.84-0.79c0.5-0.53,0.76-1.16,0.76-1.88
		c0-0.73-0.26-1.36-0.76-1.89c-0.5-0.52-1.12-0.79-1.84-0.79c-0.73,0-1.36,0.26-1.85,0.79c-0.5,0.53-0.76,1.16-0.76,1.89
		C162.35,35.68,162.62,36.31,163.11,36.85"/>
	<rect x="155.37" y="8.25" class="st0" width="3.66" height="14.65"/>
	<path class="st1" d="M65.27,13.89h5.21c0.21,0,0.97-0.42,1.25-0.56c0.67-0.34,1.67-0.59,1.67-1.41V8.06c0-0.72-0.72-0.95-1.22-1.2
		c-0.15-0.07-0.25-0.13-0.39-0.2c-0.09-0.04-0.11-0.05-0.2-0.09l-0.64-0.32c-0.12-0.06-0.28-0.16-0.46-0.16h-5.21
		c-0.18,0-0.29,0.16-0.29,0.33v2.29c0,0.16,0.34,0.1,0.49,0.1c0.43,0,0.89-0.07,1.11,0.14c0.11,0.1,0.2,0.21,0.2,0.42v1.25
		c0,0.38-0.3,0.56-0.66,0.56l-0.92,0c-0.12,0-0.23-0.02-0.23,0.1v2.29C64.98,13.73,65.1,13.89,65.27,13.89 M71.01,11.5V8.48
		c0-0.4,0.56-0.31,0.56-0.07v3.15C71.57,11.81,71.01,11.9,71.01,11.5z M60.82,10.29V9.7H59.6v0.59H60.82z M60.82,11.5v-0.62H59.6
		v0.62H60.82z M60.82,9.11V8.48H59.6v0.62H60.82z M75.24,8.78h-1.25v2.43h1.25l0,0.71h83.78l0-3.66H75.24V8.78z M63.31,10.62h2.88
		V9.37h-2.88c-0.4,0-0.72,0.23-0.72,0.62C62.59,10.38,62.91,10.62,63.31,10.62z M59.93,13.01h4.39c0.08,0,0.1-0.02,0.1-0.1
		c0-1.95,0.12-1.74-0.36-1.74c-0.36,0-1.05,0.04-1.3-0.08c-1.05-0.48-0.95-1.8-0.02-2.2c0.57-0.24,1.68,0.07,1.68-0.19V7.08
		c0-0.08-0.02-0.1-0.1-0.1h-4.39c-0.23,0-0.3,0.13-0.33,0.33v0.51v0.08c1.03,0,1.8-0.19,1.8,0.75v2.69c0,0.94-0.77,0.75-1.8,0.75
		v0.08v0.51C59.63,12.87,59.7,13.01,59.93,13.01z M72.55,11.17c-0.22,0-0.36-0.08-0.36-0.36V9.17c0-0.49,0.59-0.47,0.59-0.07v1.77
		C72.78,11.01,72.67,11.17,72.55,11.17z"/>
</g>
</svg>
